<svg width="238" height="57" viewBox="0 0 238 57" fill="none" xmlns="http://www.w3.org/2000/svg">
<path d="M0 10.2308C0 4.58047 5.19787 0 11.6098 0H226.39C232.802 0 238 4.58047 238 10.2308V46.7692C238 52.4195 232.802 57 226.39 57H11.6098C5.19787 57 0 52.4195 0 46.7692V10.2308Z" fill="#8A9AF1"/>
<path d="M64.2335 37.4797C62.8005 37.4797 61.5964 37.4095 60.6212 37.2692C59.6459 37.1114 58.8498 36.8483 58.2329 36.48C57.6159 36.0942 57.1382 35.5592 56.7999 34.8752C56.4815 34.1737 56.2625 33.2792 56.1431 32.1918C56.0237 31.1045 55.964 29.7803 55.964 28.2194C55.964 26.6585 56.0237 25.3431 56.1431 24.2732C56.2625 23.1858 56.4815 22.3002 56.7999 21.6162C57.1382 20.9146 57.6159 20.3709 58.2329 19.9851C58.8498 19.5992 59.6459 19.3362 60.6212 19.1958C61.5964 19.038 62.8005 18.9591 64.2335 18.9591C64.7907 18.9591 65.3579 18.9766 65.9351 19.0117C66.5322 19.0468 67.0994 19.0906 67.6368 19.1432C68.1741 19.1958 68.6419 19.266 69.0399 19.3537V21.1689C68.5821 21.1163 68.1045 21.0725 67.6069 21.0374C67.1293 20.9848 66.6516 20.9497 66.174 20.9322C65.6963 20.9146 65.2684 20.9058 64.8902 20.9058C63.7359 20.9058 62.7706 20.9497 61.9944 21.0374C61.2182 21.1251 60.6013 21.3005 60.1435 21.5635C59.6858 21.8091 59.3375 22.2037 59.0986 22.7474C58.8797 23.2735 58.7304 23.9838 58.6508 24.8783C58.5712 25.7552 58.5314 26.8689 58.5314 28.2194C58.5314 29.5698 58.5712 30.6923 58.6508 31.5868C58.7304 32.4637 58.8797 33.174 59.0986 33.7177C59.3375 34.2438 59.6858 34.6385 60.1435 34.9015C60.6013 35.1471 61.2182 35.3137 61.9944 35.4014C62.7706 35.4891 63.7359 35.5329 64.8902 35.5329C65.5669 35.5329 66.3033 35.5066 67.0994 35.454C67.8955 35.4014 68.5821 35.34 69.1593 35.2698V37.1377C68.7414 37.2078 68.2438 37.2605 67.6666 37.2955C67.1094 37.3482 66.5322 37.392 65.9351 37.4271C65.338 37.4622 64.7708 37.4797 64.2335 37.4797Z" fill="white"/>
<path d="M81.5544 37.4797C79.9622 37.4797 78.6387 37.4095 77.5839 37.2692C76.549 37.1114 75.723 36.8395 75.106 36.4537C74.5089 36.0678 74.0711 35.5329 73.7925 34.8489C73.5138 34.1474 73.3347 33.2617 73.2551 32.1918C73.1755 31.1045 73.1357 29.7803 73.1357 28.2194C73.1357 26.6585 73.1755 25.3431 73.2551 24.2732C73.3347 23.1858 73.5138 22.3002 73.7925 21.6162C74.0711 20.9146 74.5089 20.3709 75.106 19.9851C75.723 19.5992 76.549 19.3362 77.5839 19.1958C78.6387 19.038 79.9622 18.9591 81.5544 18.9591C83.1466 18.9591 84.4602 19.038 85.4951 19.1958C86.5499 19.3362 87.3759 19.5992 87.9729 19.9851C88.5899 20.3709 89.0377 20.9146 89.3164 21.6162C89.595 22.3002 89.7741 23.1858 89.8537 24.2732C89.9333 25.3431 89.9731 26.6585 89.9731 28.2194C89.9731 29.7803 89.9333 31.1045 89.8537 32.1918C89.7741 33.2617 89.595 34.1474 89.3164 34.8489C89.0377 35.5329 88.5899 36.0678 87.9729 36.4537C87.3759 36.8395 86.5499 37.1114 85.4951 37.2692C84.4602 37.4095 83.1466 37.4797 81.5544 37.4797ZM81.5544 35.5329C82.649 35.5329 83.5546 35.5066 84.2711 35.454C84.9876 35.3838 85.5548 35.2348 85.9728 35.0068C86.3907 34.7788 86.7092 34.4105 86.9281 33.9018C87.147 33.3757 87.2764 32.6566 87.3162 31.7446C87.3759 30.8326 87.4057 29.6575 87.4057 28.2194C87.4057 26.7812 87.3759 25.6062 87.3162 24.6942C87.2764 23.7822 87.147 23.0718 86.9281 22.5632C86.7092 22.0371 86.3907 21.66 85.9728 21.432C85.5548 21.204 84.9876 21.0637 84.2711 21.0111C83.5546 20.9409 82.649 20.9058 81.5544 20.9058C80.4598 20.9058 79.5542 20.9409 78.8377 21.0111C78.1411 21.0637 77.5739 21.204 77.1361 21.432C76.7181 21.66 76.3997 22.0371 76.1808 22.5632C75.9817 23.0718 75.8524 23.7822 75.7927 24.6942C75.733 25.6062 75.7031 26.7812 75.7031 28.2194C75.7031 29.6575 75.733 30.8326 75.7927 31.7446C75.8524 32.6566 75.9817 33.3757 76.1808 33.9018C76.3997 34.4105 76.7181 34.7788 77.1361 35.0068C77.5739 35.2348 78.1411 35.3838 78.8377 35.454C79.5542 35.5066 80.4598 35.5329 81.5544 35.5329Z" fill="white"/>
<path d="M95.2512 37.2692V19.1695H97.8783L108.536 33.0337H108.655V19.1695H111.133V37.2692H108.655L97.8484 23.142H97.729V37.2692H95.2512Z" fill="white"/>
<path d="M121.476 37.2692V21.1689H114.998V19.1695H130.551V21.1689H124.043V37.2692H121.476Z" fill="white"/>
<path d="M130.215 37.2692L137.977 19.1695H141.201L148.933 37.2692H146.276L144.156 32.3234H134.932L132.812 37.2692H130.215ZM135.708 30.3503H143.38L139.619 21.4846H139.469L135.708 30.3503Z" fill="white"/>
<path d="M160.325 37.4797C158.892 37.4797 157.688 37.4095 156.713 37.2692C155.737 37.1114 154.941 36.8483 154.324 36.48C153.707 36.0942 153.23 35.5592 152.891 34.8752C152.573 34.1737 152.354 33.2792 152.235 32.1918C152.115 31.1045 152.055 29.7803 152.055 28.2194C152.055 26.6585 152.115 25.3431 152.235 24.2732C152.354 23.1858 152.573 22.3002 152.891 21.6162C153.23 20.9146 153.707 20.3709 154.324 19.9851C154.941 19.5992 155.737 19.3362 156.713 19.1958C157.688 19.038 158.892 18.9591 160.325 18.9591C160.882 18.9591 161.449 18.9766 162.027 19.0117C162.624 19.0468 163.191 19.0906 163.728 19.1432C164.266 19.1958 164.733 19.266 165.131 19.3537V21.1689C164.674 21.1163 164.196 21.0725 163.698 21.0374C163.221 20.9848 162.743 20.9497 162.265 20.9322C161.788 20.9146 161.36 20.9058 160.982 20.9058C159.827 20.9058 158.862 20.9497 158.086 21.0374C157.31 21.1251 156.693 21.3005 156.235 21.5635C155.777 21.8091 155.429 22.2037 155.19 22.7474C154.971 23.2735 154.822 23.9838 154.742 24.8783C154.663 25.7552 154.623 26.8689 154.623 28.2194C154.623 29.5698 154.663 30.6923 154.742 31.5868C154.822 32.4637 154.971 33.174 155.19 33.7177C155.429 34.2438 155.777 34.6385 156.235 34.9015C156.693 35.1471 157.31 35.3137 158.086 35.4014C158.862 35.4891 159.827 35.5329 160.982 35.5329C161.658 35.5329 162.395 35.5066 163.191 35.454C163.987 35.4014 164.674 35.34 165.251 35.2698V37.1377C164.833 37.2078 164.335 37.2605 163.758 37.2955C163.201 37.3482 162.624 37.392 162.027 37.4271C161.43 37.4622 160.862 37.4797 160.325 37.4797Z" fill="white"/>
<path d="M174.332 37.2692V21.1689H167.854V19.1695H183.408V21.1689H176.9V37.2692H174.332Z" fill="white"/>
</svg>
